<mxfile host="app.diagrams.net" modified="2023-06-28T08:39:25.562Z" agent="Mozilla/5.0 (Windows NT 10.0; Win64; x64) AppleWebKit/537.36 (KHTML, like Gecko) Chrome/112.0.0.0 Safari/537.36 Edg/112.0.1722.39" version="21.5.1" etag="8JjSI39s8VPxGdZRPI_i" type="github">
  <diagram name="Page-1" id="5hXmm17UmbAWNigORTrp">
    <mxGraphModel>
      <root>
        <mxCell id="0" />
        <mxCell id="1" parent="0" />
      </root>
    </mxGraphModel>
  </diagram>
</mxfile>
